{"title":"Piranha 3DD(2012)Unrated1080p BDRip[Hindi(448kbps)-Eng]AC3-DGrea","uid":8193121,"size":2210002366,"categoryP":"video","categoryS":"hd___movies","magnet":"?xt=urn:btih:a7212b85007f5e486dbf9df2b082100814685e72&amp;dn=Piranha+3DD%282012%29Unrated1080p+BDRip%5BHindi%28448kbps%29-Eng%5DAC3-DGrea&amp;tr=udp%3A%2F%2Ftracker.openbittorrent.com%3A80&amp;tr=udp%3A%2F%2Fopen.demonii.com%3A1337&amp;tr=udp%3A%2F%2Ftracker.coppersurfer.tk%3A6969&amp;tr=udp%3A%2F%2Fexodus.desync.com%3A6969","seeders":0,"leechers":1,"uploader":"DGrea8","files":-1,"time":1361875149,"description":"  Piranha 3DD(2012)Unrated 1920x1080p BDRip In[Hindi(448kbps)-Eng(Dts)]AC3-DGrea8\n\n\nSummary:-\n\n\nHaving awoken from their spring break extravaganza at Lake Victoria, the swarm heads upstream where they look to make a meal out of Big Wet, a local water park where when it comes to fun, nobody does it wetter! Though they came to get wet, get loaded and get some, the staff and patrons get more than they bargained for when they must face the fiercest, most bloodthirsty piranhas yet. Lead by the strong-willed, studious Maddy and her friends, Barry and Kyle, the trio must dive in and take on these man-eating creatures using every ounce of their being but can they be stopped?\n\n\nCast:-\n\n\nDanielle Panabaker...Maddy\nMatt Bush............Barry\nKatrina Bowden.......Shelby\nJean-Luc Bilodeau....Josh\nDavid Koechner.......Chet\nChris Zylka..........Kyle\nAdrian Martinez......Big Dave\nPaul James Jordan....Travis\nMeagan Tandy.........Ashley\nDavid Hasselhoff.....Himself\nChristopher Lloyd....Mr. Goodman\nPaul Scheer..........Andrew\nGary Busey...........Clayton\nClu Gulager..........Mo\nSierra Fisk..........Bethany\n\n\n\nVideo &amp; Audio Info.:-\n\nDirector: John Gulager\nWriters: Patrick Melton, Marcus Dunstan\nStars: Danielle Panabaker, Ving Rhames, David Hasselhoff\nRelease Date: 15 June 2012 (India)\nFilming Locations: The Salton Sea, California, USA\nGenres: Comedy | Horror | Thriller\n\n\nVideo\nID : 1\nFormat : AVC\nFormat/Info : Advanced Video Codec\nDuration : 1h 19mn\nBit rate : 2 322 Kbps\nWidth : 1 920 pixels\nHeight : 1 080 pixels\nDisplay aspect ratio : 16:9\nFrame rate : 25.000 fps\nOriginal frame rate : 23.976 fps\nColor space : YUV\nChroma subsampling : 4:2:0\nBit depth : 8 bits\nScan type : Progressive\n\n\nAudio #1\nID : 2\nFormat : AC-3\nFormat/Info : Audio Coding 3\nMode extension : CM (complete main)\nMuxing mode : Header stripping\nCodec ID : A_AC3\nDuration : 1h 19mn\nBit rate mode : Constant\nBit rate : 448 Kbps\nChannel(s) : 6 channels\nChannel positions : Front: L C R, Side: L R, LFE\nSampling rate : 48.0 KHz\nBit depth : 16 bits\nCompression mode : Lossy\nDelay relative to video : 7s 0ms\nStream size : 254 MiB (12%)\nTitle : Hindi(448 kbps)\nLanguage : Hindi\n\nAudio #2\nID : 3\nFormat : DTS\nFormat/Info : Digital Theater Systems\nMuxing mode : Header stripping\nCodec ID : A_DTS\nDuration : 1h 19mn\nBit rate mode : Constant\nBit rate : 755 Kbps\nChannel(s) : 6 channels\nChannel positions : Front: L C R, Side: L R, LFE\nSampling rate : 48.0 KHz\nBit depth : 24 bits\nCompression mode : Lossy\nStream size : 428 MiB (21%)\nTitle : Dts\nLanguage : English\n\nSubtitle Languages : English\n\n\nScreen Shoots:-\n\n      &lt;a href=&quot;\nhttp://www.shotpix.com/images/96437775010997131420.jpg&quot; rel=&quot;nofollow&quot; target=&quot;_NEW&quot;&gt;\nhttp://www.shotpix.com/images/96437775010997131420.jpg&lt;/a&gt;\n &lt;a href=&quot;\nhttp://www.shotpix.com/images/47205844785646987727.jpg&quot; rel=&quot;nofollow&quot; target=&quot;_NEW&quot;&gt;\nhttp://www.shotpix.com/images/47205844785646987727.jpg&lt;/a&gt;\n &lt;a href=&quot;\nhttp://www.shotpix.com/images/90154873542632901246.jpg&quot; rel=&quot;nofollow&quot; target=&quot;_NEW&quot;&gt;\nhttp://www.shotpix.com/images/90154873542632901246.jpg&lt;/a&gt;\n &lt;a href=&quot;\nhttp://www.shotpix.com/images/61453345258326956789.jpg&quot; rel=&quot;nofollow&quot; target=&quot;_NEW&quot;&gt;\nhttp://www.shotpix.com/images/61453345258326956789.jpg&lt;/a&gt;\n &lt;a href=&quot;\nhttp://www.shotpix.com/images/00411797909072808133.jpg&quot; rel=&quot;nofollow&quot; target=&quot;_NEW&quot;&gt;\nhttp://www.shotpix.com/images/00411797909072808133.jpg&lt;/a&gt;\n\n\nNote:-- Check The Torrent\n\n\nENGLISH AND HINDI 6CH AUDIO MIX VIDEO SAMPLE\t\n\nONLY 6CH HINDI VIDEO SAMPLE\t\n\t\t\t\t","torrent":{"xt":"urn:btih:a7212b85007f5e486dbf9df2b082100814685e72","amp;dn":"Piranha+3DD%282012%29Unrated1080p+BDRip%5BHindi%28448kbps%29-Eng%5DAC3-DGrea","amp;tr":["udp%3A%2F%2Ftracker.openbittorrent.com%3A80","udp%3A%2F%2Fopen.demonii.com%3A1337","udp%3A%2F%2Ftracker.coppersurfer.tk%3A6969","udp%3A%2F%2Fexodus.desync.com%3A6969"],"infoHash":"a7212b85007f5e486dbf9df2b082100814685e72","infoHashBuffer":{"type":"Buffer","data":[167,33,43,133,0,127,94,72,109,191,157,242,176,130,16,8,20,104,94,114]},"announce":[],"urlList":[]}}